<mxfile host="app.diagrams.net" modified="2024-03-13T03:07:36.763Z" agent="Mozilla/5.0 (Windows NT 10.0; Win64; x64) AppleWebKit/537.36 (KHTML, like Gecko) Chrome/122.0.0.0 Safari/537.36" etag="L1kiW0qSAzzxdU4SeW_M" version="24.0.1" type="device">
  <diagram name="Halaman-1" id="68-aU5l0zUEGFdwvhopm">
    <mxGraphModel dx="473" dy="695" grid="1" gridSize="10" guides="1" tooltips="1" connect="1" arrows="1" fold="1" page="1" pageScale="1" pageWidth="827" pageHeight="1169" math="0" shadow="0">
      <root>
        <mxCell id="0" />
        <mxCell id="1" parent="0" />
        <mxCell id="w-gLjDbcgZaN9TxyO2vj-1" value="Start" style="ellipse;whiteSpace=wrap;html=1;" vertex="1" parent="1">
          <mxGeometry x="275" y="150" width="70" height="40" as="geometry" />
        </mxCell>
        <mxCell id="w-gLjDbcgZaN9TxyO2vj-2" value="Input Angka" style="shape=parallelogram;perimeter=parallelogramPerimeter;whiteSpace=wrap;html=1;fixedSize=1;" vertex="1" parent="1">
          <mxGeometry x="250" y="220" width="120" height="60" as="geometry" />
        </mxCell>
      </root>
    </mxGraphModel>
  </diagram>
</mxfile>
